<svg width="150" height="150" viewBox="0 0 150 150" fill="none" xmlns="http://www.w3.org/2000/svg">
<rect width="150" height="150" fill="white"/>
<mask id="mask0_1005_2432" style="mask-type:luminance" maskUnits="userSpaceOnUse" x="18" y="58" width="35" height="34">
<path d="M52.0423 58H18V91.9585H52.0423V58Z" fill="white"/>
</mask>
<g mask="url(#mask0_1005_2432)">
<path d="M29.7002 81.4396H39.6091C39.8571 81.4396 40.095 81.3393 40.2704 81.1607C40.4458 80.9821 40.5444 80.7399 40.5446 80.4873V72.4582C40.5446 72.2055 40.446 71.9631 40.2706 71.7844C40.0951 71.6058 39.8572 71.5054 39.6091 71.5054H18.9355C18.6874 71.5054 18.4494 71.6058 18.274 71.7844C18.0986 71.9631 18 72.2055 18 72.4582V80.4873C18.0002 80.7399 18.0988 80.9821 18.2742 81.1607C18.4496 81.3393 18.6875 81.4396 18.9355 81.4396H29.7002Z" fill="#231F20"/>
<path d="M27.8292 60.9871H18.9355C18.4188 60.9871 18 61.4137 18 61.9399V69.9684C18 70.4947 18.4188 70.9213 18.9355 70.9213H27.8292C28.3459 70.9213 28.7647 70.4947 28.7647 69.9684V61.9399C28.7647 61.4137 28.3459 60.9871 27.8292 60.9871Z" fill="#231F20"/>
<path d="M27.8292 82.0237H18.9355C18.4188 82.0237 18 82.4503 18 82.9765V91.0051C18 91.5313 18.4188 91.9579 18.9355 91.9579H27.8292C28.3459 91.9579 28.7647 91.5313 28.7647 91.0051V82.9765C28.7647 82.4503 28.3459 82.0237 27.8292 82.0237Z" fill="#231F20"/>
<path d="M48.9785 82.0237H30.2734C30.0252 82.0237 29.7873 82.1241 29.6119 82.3028C29.4364 82.4815 29.3379 82.7238 29.3379 82.9765V91.0068C29.3379 91.2595 29.4364 91.5019 29.6119 91.6806C29.7873 91.8593 30.0252 91.9596 30.2734 91.9596H48.9785C49.2265 91.9595 49.4643 91.859 49.6396 91.6804C49.8149 91.5017 49.9134 91.2594 49.9134 91.0068V82.9765C49.9134 82.7239 49.8149 82.4817 49.6396 82.303C49.4643 82.1243 49.2265 82.0239 48.9785 82.0237Z" fill="#231F20"/>
<path d="M51.2217 58H38.0366C37.5832 58 37.2158 58.3743 37.2158 58.836V65.1838C37.2158 65.6455 37.5832 66.0198 38.0366 66.0198H51.2217C51.675 66.0198 52.0425 65.6455 52.0425 65.1838V58.836C52.0425 58.3743 51.675 58 51.2217 58Z" fill="#231F20"/>
</g>
<path d="M57.5151 70.3089H60.984V71.6759H57.5151V70.3089ZM57.6389 74.3574H55.9667V66.9966H61.4279V68.3636H57.6389V74.3574ZM64.7164 74.4415C64.2554 74.4415 63.8426 74.3504 63.4777 74.1681C63.1197 73.9858 62.8411 73.7089 62.6416 73.3374C62.442 72.9588 62.342 72.4786 62.342 71.8968V68.7001H63.9527V71.6549C63.9527 72.1246 64.0488 72.4716 64.2418 72.6959C64.4414 72.9133 64.7199 73.0219 65.0779 73.0219C65.3257 73.0219 65.5459 72.9694 65.7389 72.8642C65.9315 72.752 66.0828 72.5838 66.1929 72.3594C66.303 72.1281 66.3583 71.8407 66.3583 71.4972V68.7001H67.9686V74.3574H66.4408V72.8011L66.7193 73.2533C66.5337 73.6458 66.2583 73.9438 65.8937 74.1471C65.5358 74.3434 65.1432 74.4415 64.7164 74.4415ZM72.894 68.6159C73.3348 68.6159 73.727 68.7071 74.0713 68.8894C74.4222 69.0646 74.6973 69.338 74.8969 69.7096C75.0965 70.0741 75.1965 70.5438 75.1965 71.1186V74.3574H73.5858V71.371C73.5858 70.9153 73.4862 70.5788 73.2866 70.3615C73.0936 70.1442 72.8185 70.0355 72.4606 70.0355C72.2058 70.0355 71.9754 70.0916 71.7689 70.2038C71.5693 70.3089 71.4109 70.4737 71.2938 70.698C71.1837 70.9223 71.1288 71.2097 71.1288 71.5603V74.3574H69.5181V68.7001H71.0565V70.2669L70.7674 69.7937C70.967 69.4151 71.2526 69.1242 71.6241 68.9209C71.9961 68.7176 72.4194 68.6159 72.894 68.6159ZM79.139 74.4415C78.6161 74.4415 78.1445 74.3223 77.7247 74.084C77.3049 73.8386 76.9711 73.4986 76.7233 73.064C76.4825 72.6294 76.3619 72.1176 76.3619 71.5287C76.3619 70.9329 76.4825 70.4176 76.7233 69.9829C76.9711 69.5483 77.3049 69.2118 77.7247 68.9735C78.1445 68.7351 78.6161 68.6159 79.139 68.6159C79.607 68.6159 80.0167 68.7211 80.3676 68.9314C80.7189 69.1417 80.9905 69.4607 81.1835 69.8883C81.3761 70.3159 81.4725 70.8628 81.4725 71.5287C81.4725 72.1877 81.3796 72.7345 81.1936 73.1691C81.008 73.5968 80.7396 73.9158 80.3883 74.1261C80.0443 74.3364 79.628 74.4415 79.139 74.4415ZM79.4179 73.0955C79.6794 73.0955 79.9171 73.0324 80.1303 72.9062C80.3435 72.7801 80.5123 72.6013 80.6361 72.37C80.7668 72.1316 80.8322 71.8512 80.8322 71.5287C80.8322 71.1993 80.7668 70.9188 80.6361 70.6875C80.5123 70.4561 80.3435 70.2774 80.1303 70.1512C79.9171 70.025 79.6794 69.9619 79.4179 69.9619C79.1495 69.9619 78.9086 70.025 78.6951 70.1512C78.4818 70.2774 78.3099 70.4561 78.1791 70.6875C78.055 70.9188 77.9932 71.1993 77.9932 71.5287C77.9932 71.8512 78.055 72.1316 78.1791 72.37C78.3099 72.6013 78.4818 72.7801 78.6951 72.9062C78.9086 73.0324 79.1495 73.0955 79.4179 73.0955ZM80.8738 74.3574V73.2007L80.9045 71.5182L80.8014 69.8462V66.5549H82.4118V74.3574H80.8738ZM87.3669 74.3574V73.2533L87.2638 73.0114V71.0345C87.2638 70.684 87.1572 70.4106 86.9436 70.2143C86.737 70.018 86.4172 69.9199 85.9834 69.9199C85.6877 69.9199 85.3951 69.9689 85.1061 70.0671C84.8236 70.1582 84.5828 70.2844 84.3832 70.4456L83.805 69.2994C84.1081 69.0821 84.4727 68.9139 84.8995 68.7947C85.3263 68.6755 85.7597 68.6159 86.2005 68.6159C87.0471 68.6159 87.7042 68.8193 88.1723 69.2258C88.6403 69.6324 88.8741 70.2669 88.8741 71.1291V74.3574H87.3669ZM85.6737 74.4415C85.2403 74.4415 84.8684 74.3679 84.5587 74.2207C84.249 74.0665 84.0116 73.8597 83.8463 73.6003C83.6813 73.3409 83.5985 73.05 83.5985 72.7275C83.5985 72.391 83.6778 72.0966 83.8362 71.8442C84.0011 71.5918 84.2595 71.3955 84.6104 71.2553C84.9613 71.1081 85.4192 71.0345 85.9834 71.0345H87.4599V71.9914H86.1589C85.7803 71.9914 85.5189 72.0545 85.3745 72.1807C85.2368 72.3069 85.1679 72.4646 85.1679 72.6539C85.1679 72.8642 85.2469 73.0324 85.4053 73.1586C85.5706 73.2778 85.7943 73.3374 86.0764 73.3374C86.3448 73.3374 86.5857 73.2743 86.7992 73.1481C87.0125 73.0149 87.1673 72.8221 87.2638 72.5697L87.5116 73.3269C87.3945 73.6914 87.1813 73.9683 86.8713 74.1576C86.5616 74.3469 86.1624 74.4415 85.6737 74.4415ZM97.5023 68.6159C97.9431 68.6159 98.3318 68.7071 98.6691 68.8894C99.0134 69.0646 99.2818 69.338 99.4744 69.7096C99.674 70.0741 99.7736 70.5438 99.7736 71.1186V74.3574H98.1633V71.371C98.1633 70.9153 98.0703 70.5788 97.8843 70.3615C97.6987 70.1442 97.4369 70.0355 97.1 70.0355C96.8658 70.0355 96.656 70.0916 96.4701 70.2038C96.2841 70.3089 96.1398 70.4702 96.0363 70.6875C95.9332 70.9048 95.8815 71.1817 95.8815 71.5182V74.3574H94.2711V71.371C94.2711 70.9153 94.1781 70.5788 93.9922 70.3615C93.8132 70.1442 93.5552 70.0355 93.2179 70.0355C92.9841 70.0355 92.774 70.0916 92.588 70.2038C92.4024 70.3089 92.2577 70.4702 92.1546 70.6875C92.0511 70.9048 91.9998 71.1817 91.9998 71.5182V74.3574H90.3891V68.7001H91.9274V70.2458L91.6383 69.7937C91.8309 69.4081 92.1029 69.1172 92.4538 68.9209C92.8118 68.7176 93.2179 68.6159 93.6723 68.6159C94.1816 68.6159 94.6255 68.7491 95.0041 69.0155C95.3893 69.2749 95.6441 69.6745 95.7678 70.2143L95.2002 70.0566C95.3861 69.6149 95.6819 69.2644 96.088 69.005C96.5008 68.7456 96.9724 68.6159 97.5023 68.6159ZM104.072 74.4415C103.438 74.4415 102.881 74.3153 102.399 74.0629C101.924 73.8106 101.556 73.4671 101.294 73.0324C101.033 72.5908 100.902 72.0896 100.902 71.5287C100.902 70.9609 101.029 70.4597 101.284 70.025C101.545 69.5834 101.9 69.2399 102.347 68.9945C102.795 68.7421 103.301 68.6159 103.865 68.6159C104.409 68.6159 104.898 68.7351 105.331 68.9735C105.771 69.2048 106.119 69.5413 106.374 69.9829C106.629 70.4176 106.756 70.9399 106.756 71.5497C106.756 71.6129 106.752 71.6865 106.746 71.7706C106.739 71.8477 106.732 71.9213 106.725 71.9914H102.213V71.0345H105.878L105.259 71.3184C105.259 71.024 105.2 70.7681 105.083 70.5508C104.966 70.3335 104.805 70.1652 104.598 70.0461C104.391 69.9199 104.151 69.8568 103.875 69.8568C103.6 69.8568 103.356 69.9199 103.142 70.0461C102.936 70.1652 102.774 70.337 102.657 70.5613C102.54 70.7786 102.482 71.038 102.482 71.3394V71.5918C102.482 71.9003 102.547 72.1737 102.678 72.412C102.815 72.6434 103.005 72.8221 103.246 72.9483C103.493 73.0675 103.783 73.1271 104.113 73.1271C104.409 73.1271 104.667 73.0815 104.887 72.9904C105.114 72.8993 105.321 72.7626 105.506 72.5803L106.364 73.5267C106.109 73.8211 105.789 74.0489 105.403 74.2102C105.018 74.3644 104.574 74.4415 104.072 74.4415ZM111.262 68.6159C111.702 68.6159 112.095 68.7071 112.439 68.8894C112.79 69.0646 113.065 69.338 113.265 69.7096C113.464 70.0741 113.564 70.5438 113.564 71.1186V74.3574H111.953V71.371C111.953 70.9153 111.854 70.5788 111.654 70.3615C111.461 70.1442 111.186 70.0355 110.828 70.0355C110.573 70.0355 110.343 70.0916 110.137 70.2038C109.937 70.3089 109.779 70.4737 109.662 70.698C109.551 70.9223 109.496 71.2097 109.496 71.5603V74.3574H107.886V68.7001H109.424V70.2669L109.135 69.7937C109.335 69.4151 109.62 69.1242 109.992 68.9209C110.363 68.7176 110.787 68.6159 111.262 68.6159ZM117.353 74.4415C116.699 74.4415 116.189 74.2733 115.824 73.9368C115.46 73.5933 115.277 73.085 115.277 72.412V67.4487H116.888V72.391C116.888 72.6294 116.95 72.8151 117.074 72.9483C117.198 73.0745 117.366 73.1376 117.579 73.1376C117.834 73.1376 118.051 73.0675 118.23 72.9273L118.664 74.084C118.498 74.2032 118.299 74.2943 118.065 74.3574C117.838 74.4135 117.6 74.4415 117.353 74.4415ZM114.42 70.0881V68.8262H118.271V70.0881H114.42ZM123.032 74.3574V73.2533L122.929 73.0114V71.0345C122.929 70.684 122.822 70.4106 122.609 70.2143C122.402 70.018 122.082 69.9199 121.648 69.9199C121.352 69.9199 121.06 69.9689 120.771 70.0671C120.489 70.1582 120.248 70.2844 120.048 70.4456L119.47 69.2994C119.773 69.0821 120.138 68.9139 120.565 68.7947C120.991 68.6755 121.425 68.6159 121.865 68.6159C122.712 68.6159 123.369 68.8193 123.837 69.2258C124.305 69.6324 124.539 70.2669 124.539 71.1291V74.3574H123.032ZM121.339 74.4415C120.905 74.4415 120.533 74.3679 120.224 74.2207C119.914 74.0665 119.677 73.8597 119.511 73.6003C119.346 73.3409 119.264 73.05 119.264 72.7275C119.264 72.391 119.343 72.0966 119.501 71.8442C119.666 71.5918 119.924 71.3955 120.275 71.2553C120.626 71.1081 121.084 71.0345 121.648 71.0345H123.125V71.9914H121.824C121.445 71.9914 121.184 72.0545 121.039 72.1807C120.902 72.3069 120.833 72.4646 120.833 72.6539C120.833 72.8642 120.912 73.0324 121.07 73.1586C121.236 73.2778 121.459 73.3374 121.741 73.3374C122.01 73.3374 122.251 73.2743 122.464 73.1481C122.677 73.0149 122.832 72.8221 122.929 72.5697L123.176 73.3269C123.06 73.6914 122.846 73.9683 122.536 74.1576C122.227 74.3469 121.827 74.4415 121.339 74.4415ZM126.054 74.3574V66.5549H127.665V74.3574H126.054ZM59.4251 87.039C58.8815 87.039 58.3789 86.9479 57.9178 86.7656C57.4568 86.5764 57.0576 86.3135 56.7203 85.977C56.383 85.6405 56.118 85.2444 55.9251 84.7887C55.7395 84.3331 55.6465 83.8353 55.6465 83.2955C55.6465 82.7558 55.7395 82.258 55.9251 81.8023C56.118 81.3467 56.383 80.9506 56.7203 80.6141C57.0642 80.2776 57.4669 80.0182 57.928 79.8359C58.3894 79.6467 58.8916 79.552 59.4355 79.552C59.9585 79.552 60.4506 79.6432 60.9117 79.8254C61.3731 80.0007 61.7618 80.2671 62.0784 80.6246L61.5933 81.1188C61.2972 80.8104 60.9704 80.5896 60.6125 80.4564C60.2545 80.3161 59.869 80.2461 59.4562 80.2461C59.0224 80.2461 58.6197 80.3232 58.2481 80.4774C57.8766 80.6246 57.5529 80.8384 57.2778 81.1188C57.0024 81.3923 56.7856 81.7147 56.6273 82.0862C56.476 82.4508 56.4001 82.8539 56.4001 83.2955C56.4001 83.7372 56.476 84.1438 56.6273 84.5153C56.7856 84.8799 57.0024 85.2023 57.2778 85.4828C57.5529 85.7561 57.8766 85.97 58.2481 86.1242C58.6197 86.2714 59.0224 86.345 59.4562 86.345C59.869 86.345 60.2545 86.2749 60.6125 86.1347C60.9704 85.9945 61.2972 85.7702 61.5933 85.4617L62.0784 85.9559C61.7618 86.3135 61.3731 86.5834 60.9117 86.7656C60.4506 86.9479 59.955 87.039 59.4251 87.039ZM65.577 87.0285C65.0538 87.0285 64.5822 86.9094 64.1624 86.671C63.7496 86.4256 63.4228 86.0926 63.1816 85.672C62.9408 85.2444 62.8205 84.7572 62.8205 84.2104C62.8205 83.6566 62.9408 83.1694 63.1816 82.7487C63.4228 82.3281 63.7496 81.9986 64.1624 81.7603C64.5756 81.5219 65.0471 81.4028 65.577 81.4028C66.1139 81.4028 66.5886 81.5219 67.0018 81.7603C67.4216 81.9986 67.7484 82.3281 67.9826 82.7487C68.2234 83.1694 68.344 83.6566 68.344 84.2104C68.344 84.7572 68.2234 85.2444 67.9826 85.672C67.7484 86.0926 67.4216 86.4256 67.0018 86.671C66.582 86.9094 66.1069 87.0285 65.577 87.0285ZM65.577 86.3661C65.9692 86.3661 66.317 86.2784 66.6197 86.1032C66.9224 85.9209 67.1601 85.6685 67.3321 85.3461C67.5111 85.0166 67.6005 84.638 67.6005 84.2104C67.6005 83.7758 67.5111 83.3972 67.3321 83.0747C67.1601 82.7523 66.9224 82.5034 66.6197 82.3281C66.317 82.1458 65.9727 82.0547 65.5872 82.0547C65.202 82.0547 64.8577 82.1458 64.555 82.3281C64.2519 82.5034 64.0111 82.7523 63.8321 83.0747C63.6531 83.3972 63.5637 83.7758 63.5637 84.2104C63.5637 84.638 63.6531 85.0166 63.8321 85.3461C64.0111 85.6685 64.2519 85.9209 64.555 86.1032C64.8577 86.2784 65.1985 86.3661 65.577 86.3661ZM72.0555 87.0285C71.5392 87.0285 71.0747 86.9094 70.6618 86.671C70.2557 86.4326 69.9355 86.1032 69.7017 85.6826C69.4675 85.2549 69.3507 84.7642 69.3507 84.2104C69.3507 83.6496 69.4675 83.1588 69.7017 82.7382C69.9355 82.3176 70.2557 81.9916 70.6618 81.7603C71.0747 81.5219 71.5392 81.4028 72.0555 81.4028C72.5305 81.4028 72.9538 81.5114 73.3254 81.7287C73.7039 81.9461 74.0035 82.265 74.2237 82.6856C74.4506 83.0993 74.5642 83.6075 74.5642 84.2104C74.5642 84.8063 74.4541 85.3145 74.2338 85.7351C74.0136 86.1558 73.7144 86.4782 73.3359 86.7026C72.9639 86.9199 72.5371 87.0285 72.0555 87.0285ZM72.1072 86.3661C72.4924 86.3661 72.8367 86.2784 73.1394 86.1032C73.4491 85.9209 73.6903 85.6685 73.8623 85.3461C74.0412 85.0166 74.1307 84.638 74.1307 84.2104C74.1307 83.7758 74.0412 83.3972 73.8623 83.0747C73.6903 82.7523 73.4491 82.5034 73.1394 82.3281C72.8367 82.1458 72.4924 82.0547 72.1072 82.0547C71.7287 82.0547 71.3878 82.1458 71.0851 82.3281C70.7821 82.5034 70.5413 82.7523 70.3623 83.0747C70.1833 83.3972 70.0938 83.7758 70.0938 84.2104C70.0938 84.638 70.1833 85.0166 70.3623 85.3461C70.5413 85.6685 70.7821 85.9209 71.0851 86.1032C71.3878 86.2784 71.7287 86.3661 72.1072 86.3661ZM74.1513 86.9759V85.3145L74.2237 84.1999L74.1202 83.0852V79.1735H74.8532V86.9759H74.1513ZM79.2543 87.0285C78.6902 87.0285 78.1945 86.9094 77.7677 86.671C77.3409 86.4256 77.0071 86.0926 76.7663 85.672C76.5254 85.2444 76.4049 84.7572 76.4049 84.2104C76.4049 83.6636 76.5185 83.1799 76.7457 82.7593C76.9799 82.3386 77.2962 82.0091 77.6954 81.7708C78.1015 81.5254 78.5559 81.4028 79.0582 81.4028C79.5675 81.4028 80.0184 81.5219 80.4106 81.7603C80.8098 81.9916 81.123 82.3211 81.3502 82.7487C81.5774 83.1694 81.691 83.6566 81.691 84.2104C81.691 84.2454 81.6875 84.284 81.6805 84.3261C81.6805 84.3611 81.6805 84.3997 81.6805 84.4417H76.9624V83.8844H81.2883L80.9993 84.1052C80.9993 83.7056 80.9133 83.3516 80.7413 83.0432C80.576 82.7277 80.3488 82.4823 80.0597 82.3071C79.7706 82.1318 79.4368 82.0442 79.0582 82.0442C78.6867 82.0442 78.3529 82.1318 78.0568 82.3071C77.7607 82.4823 77.5304 82.7277 77.3651 83.0432C77.2001 83.3586 77.1172 83.7197 77.1172 84.1262V84.2419C77.1172 84.6626 77.2067 85.0341 77.3857 85.3566C77.5716 85.672 77.8261 85.9209 78.1498 86.1032C78.4801 86.2784 78.8552 86.3661 79.275 86.3661C79.6056 86.3661 79.9118 86.3065 80.1939 86.1873C80.483 86.0681 80.7308 85.8858 80.9374 85.6405L81.3502 86.1242C81.1094 86.4186 80.8067 86.6429 80.4417 86.7972C80.0838 86.9514 79.6881 87.0285 79.2543 87.0285ZM84.696 87.0285C84.2486 87.0285 83.8253 86.9654 83.4261 86.8393C83.027 86.7061 82.7138 86.5413 82.4866 86.345L82.8169 85.7561C83.0371 85.9244 83.3192 86.0716 83.6635 86.1978C84.0074 86.317 84.3689 86.3766 84.7474 86.3766C85.2637 86.3766 85.6353 86.2959 85.8625 86.1347C86.0897 85.9665 86.2033 85.7456 86.2033 85.4723C86.2033 85.2689 86.1379 85.1112 86.0072 84.999C85.8831 84.8799 85.7181 84.7923 85.5115 84.7362C85.3049 84.6731 85.0746 84.6205 84.8198 84.5784C84.565 84.5364 84.3105 84.4873 84.0557 84.4312C83.8078 84.3751 83.581 84.2945 83.3744 84.1894C83.1678 84.0772 82.9994 83.9265 82.8686 83.7372C82.7445 83.5479 82.6827 83.2955 82.6827 82.9801C82.6827 82.6786 82.7652 82.4087 82.9305 82.1704C83.0955 81.932 83.3367 81.7463 83.653 81.6131C83.9767 81.4729 84.3689 81.4028 84.8299 81.4028C85.1812 81.4028 85.5322 81.4518 85.8831 81.55C86.234 81.6411 86.5231 81.7638 86.7503 81.918L86.4305 82.5174C86.1893 82.3491 85.9313 82.23 85.6559 82.1599C85.3808 82.0828 85.1054 82.0442 84.8299 82.0442C84.3413 82.0442 83.9802 82.1318 83.746 82.3071C83.5188 82.4753 83.4052 82.6926 83.4052 82.959C83.4052 83.1694 83.4674 83.3341 83.5911 83.4533C83.7219 83.5724 83.8907 83.6671 84.0969 83.7372C84.3105 83.8003 84.5408 83.8529 84.7887 83.8949C85.0435 83.937 85.2948 83.9896 85.5423 84.0526C85.7971 84.1087 86.0278 84.1894 86.234 84.2945C86.4476 84.3926 86.6161 84.5364 86.7402 84.7256C86.8709 84.9079 86.9363 85.1497 86.9363 85.4512C86.9363 85.7737 86.8468 86.0541 86.6678 86.2924C86.4958 86.5238 86.241 86.7061 85.9037 86.8393C85.5734 86.9654 85.1707 87.0285 84.696 87.0285Z" fill="black"/>
</svg>
