<svg width="321" height="89" fill="none" xmlns="http://www.w3.org/2000/svg"><path d="M99.958 61.073c-.753 0-1.346-.275-1.78-.825-.406-.58-.55-1.274-.435-2.085l4.386-25.623c.087-.58.333-1.028.739-1.347a2.131 2.131 0 0 1 1.433-.52c.782 0 1.39.289 1.824.868.434.55.579 1.23.434 2.04l-4.386 25.624c-.087.55-.333 1-.738 1.347-.406.347-.898.52-1.477.52Zm-1.477-19.066c-.665 0-1.23-.217-1.693-.651-.435-.464-.652-1.028-.652-1.694 0-.637.217-1.158.652-1.563.463-.406 1.028-.608 1.693-.608h20.673c.666 0 1.216.231 1.65.694.463.435.695.985.695 1.65 0 .638-.232 1.159-.695 1.564-.434.405-.984.608-1.65.608H98.481Zm13.246 19.066c-.781 0-1.389-.275-1.824-.825-.434-.58-.579-1.274-.434-2.085l4.386-25.623c.087-.58.333-1.028.739-1.347.405-.347.897-.52 1.476-.52.753 0 1.347.289 1.781.868.434.55.579 1.23.434 2.04l-4.386 25.624c-.087.55-.333 1-.738 1.347-.377.347-.855.52-1.434.52ZM96.874 54.08c-.665 0-1.23-.218-1.693-.652-.435-.463-.652-1.028-.652-1.694 0-.636.217-1.158.652-1.563.463-.405 1.028-.608 1.694-.608h20.715c.666 0 1.216.232 1.651.695.463.434.695.984.695 1.65 0 .637-.232 1.158-.695 1.564-.435.405-.985.608-1.651.608H96.874ZM133.414 61.073c-.81 0-1.476-.246-1.997-.739-.522-.52-.782-1.158-.782-1.91V36.535l.608.956-3.17 2.345c-.406.318-.912.477-1.52.477-.695 0-1.303-.26-1.825-.781a2.548 2.548 0 0 1-.781-1.868c0-.926.449-1.679 1.346-2.258l6.254-4.17c.289-.202.608-.347.955-.434.377-.087.724-.13 1.043-.13.839 0 1.505.26 1.997.782.493.492.739 1.114.739 1.867v25.103c0 .752-.275 1.39-.825 1.91-.522.493-1.202.739-2.042.739ZM153.291 61.507c-2.49 0-4.604-.651-6.341-1.954-1.708-1.332-3.011-3.17-3.909-5.516-.897-2.374-1.346-5.096-1.346-8.165 0-3.097.449-5.82 1.346-8.164.898-2.346 2.201-4.17 3.909-5.472 1.737-1.332 3.851-1.998 6.341-1.998s4.589.666 6.297 1.998c1.737 1.302 3.055 3.127 3.952 5.472.898 2.345 1.347 5.067 1.347 8.164 0 3.07-.449 5.791-1.347 8.165-.897 2.345-2.215 4.184-3.952 5.516-1.708 1.303-3.807 1.954-6.297 1.954Zm0-5.212c1.216 0 2.258-.376 3.127-1.129.897-.781 1.592-1.94 2.084-3.474.493-1.563.739-3.503.739-5.82 0-2.345-.246-4.285-.739-5.82-.492-1.534-1.187-2.677-2.084-3.43-.869-.782-1.911-1.173-3.127-1.173-1.187 0-2.23.391-3.127 1.173-.898.753-1.592 1.896-2.085 3.43-.492 1.535-.738 3.475-.738 5.82 0 2.317.246 4.257.738 5.82.493 1.535 1.187 2.693 2.085 3.474.897.753 1.94 1.13 3.127 1.13ZM179.968 61.507c-2.49 0-4.604-.651-6.341-1.954-1.708-1.332-3.011-3.17-3.909-5.516-.897-2.374-1.346-5.096-1.346-8.165 0-3.097.449-5.82 1.346-8.164.898-2.346 2.201-4.17 3.909-5.472 1.737-1.332 3.851-1.998 6.341-1.998s4.589.666 6.297 1.998c1.737 1.302 3.055 3.127 3.952 5.472.898 2.345 1.347 5.067 1.347 8.164 0 3.07-.449 5.791-1.347 8.165-.897 2.345-2.215 4.184-3.952 5.516-1.708 1.303-3.807 1.954-6.297 1.954Zm0-5.212c1.216 0 2.258-.376 3.127-1.129.897-.781 1.592-1.94 2.084-3.474.493-1.563.739-3.503.739-5.82 0-2.345-.246-4.285-.739-5.82-.492-1.534-1.187-2.677-2.084-3.43-.869-.782-1.911-1.173-3.127-1.173-1.187 0-2.23.391-3.127 1.173-.898.753-1.593 1.896-2.085 3.43-.492 1.535-.738 3.475-.738 5.82 0 2.317.246 4.257.738 5.82.492 1.535 1.187 2.693 2.085 3.474.897.753 1.94 1.13 3.127 1.13ZM206.645 61.507c-2.49 0-4.604-.651-6.341-1.954-1.708-1.332-3.011-3.17-3.909-5.516-.897-2.374-1.346-5.096-1.346-8.165 0-3.097.449-5.82 1.346-8.164.898-2.346 2.201-4.17 3.909-5.472 1.737-1.332 3.851-1.998 6.341-1.998s4.589.666 6.297 1.998c1.737 1.302 3.055 3.127 3.952 5.472.898 2.345 1.346 5.067 1.346 8.164 0 3.07-.448 5.791-1.346 8.165-.897 2.345-2.215 4.184-3.952 5.516-1.708 1.303-3.807 1.954-6.297 1.954Zm0-5.212c1.216 0 2.258-.376 3.127-1.129.897-.781 1.592-1.94 2.084-3.474.493-1.563.739-3.503.739-5.82 0-2.345-.246-4.285-.739-5.82-.492-1.534-1.187-2.677-2.084-3.43-.869-.782-1.911-1.173-3.127-1.173-1.187 0-2.23.391-3.127 1.173-.898.753-1.593 1.896-2.085 3.43-.492 1.535-.738 3.475-.738 5.82 0 2.317.246 4.257.738 5.82.492 1.535 1.187 2.693 2.085 3.474.897.753 1.94 1.13 3.127 1.13ZM236.275 30.672c2.085 0 3.938.391 5.559 1.173a11.317 11.317 0 0 1 4.082 3.3c1.13 1.39 1.969 3.011 2.519 4.864.579 1.825.869 3.779.869 5.863 0 2.809-.507 5.371-1.52 7.688-1.014 2.287-2.49 4.11-4.43 5.472-1.911 1.36-4.271 2.04-7.079 2.04h-10.38c-.752 0-1.389-.245-1.911-.738-.492-.52-.738-1.158-.738-1.91V33.32c0-.752.246-1.375.738-1.867.522-.521 1.159-.782 1.911-.782h10.38Zm-.434 25.406c1.824 0 3.315-.463 4.473-1.39 1.158-.955 1.998-2.2 2.519-3.734.55-1.564.825-3.258.825-5.082 0-1.36-.159-2.649-.478-3.865-.289-1.245-.753-2.33-1.389-3.257a6.98 6.98 0 0 0-2.433-2.258c-.984-.55-2.157-.825-3.517-.825h-7.601l.435-.391v21.28l-.261-.478h7.427ZM265.141 61.507c-2.461 0-4.604-.507-6.428-1.52-1.795-1.042-3.185-2.447-4.169-4.213-.956-1.766-1.433-3.764-1.433-5.993 0-2.606.521-4.82 1.563-6.645 1.071-1.853 2.461-3.271 4.169-4.256 1.709-.984 3.518-1.476 5.429-1.476 1.477 0 2.866.304 4.169.912a11.201 11.201 0 0 1 3.518 2.519 11.539 11.539 0 0 1 2.389 3.648c.608 1.39.912 2.866.912 4.43-.029.694-.304 1.259-.825 1.693a2.766 2.766 0 0 1-1.824.652H256.02l-1.302-4.343h15.938l-.955.868v-1.172a3.89 3.89 0 0 0-.912-2.259 5.35 5.35 0 0 0-1.998-1.563 5.393 5.393 0 0 0-2.519-.608c-.868 0-1.679.116-2.432.347a4.656 4.656 0 0 0-1.954 1.173c-.55.55-.985 1.288-1.303 2.215-.319.926-.478 2.099-.478 3.518 0 1.563.319 2.895.956 3.995.665 1.072 1.505 1.897 2.518 2.476a6.977 6.977 0 0 0 3.301.825c1.071 0 1.925-.087 2.562-.26.637-.175 1.144-.377 1.521-.609.405-.26.767-.477 1.085-.651.521-.26 1.014-.391 1.477-.391.637 0 1.158.217 1.563.651.435.435.652.941.652 1.52 0 .782-.406 1.491-1.216 2.128-.753.637-1.81 1.202-3.171 1.694-1.36.464-2.765.695-4.212.695ZM280.643 37.838c.55 0 1.057.145 1.52.434.464.26.811.666 1.043 1.216l6.384 14.593-.956.434 6.515-14.983c.492-1.158 1.259-1.708 2.302-1.65.723 0 1.302.231 1.737.694.463.435.695.985.695 1.65 0 .203-.044.42-.131.652a4.29 4.29 0 0 1-.217.651l-8.121 17.893c-.463 1.043-1.202 1.593-2.215 1.65-.55.088-1.086-.014-1.607-.303-.492-.29-.868-.738-1.129-1.346l-8.078-17.894c-.058-.144-.13-.333-.217-.564a3.43 3.43 0 0 1-.087-.825c0-.521.232-1.028.695-1.52.463-.521 1.086-.782 1.867-.782ZM302.429 57.468c-.289-.405-.419-.926-.39-1.563.028-.637.405-1.187 1.129-1.65.463-.29.955-.406 1.476-.348.521.029 1.028.29 1.52.782.84.84 1.723 1.49 2.65 1.954.926.463 2.084.695 3.474.695a14.75 14.75 0 0 0 1.433-.174 2.86 2.86 0 0 0 1.346-.695c.406-.376.608-.94.608-1.694 0-.636-.217-1.143-.651-1.52-.434-.376-1.013-.694-1.737-.955a25.263 25.263 0 0 0-2.345-.738c-.898-.26-1.824-.55-2.78-.869a12.274 12.274 0 0 1-2.562-1.216 6.15 6.15 0 0 1-1.911-2.041c-.492-.84-.738-1.897-.738-3.17 0-1.448.405-2.679 1.216-3.692.81-1.013 1.853-1.795 3.127-2.345a10.385 10.385 0 0 1 4.082-.825c.897 0 1.838.115 2.823.347.984.203 1.925.55 2.823 1.042a6.743 6.743 0 0 1 2.258 1.868c.319.434.507.955.565 1.563.058.608-.217 1.159-.825 1.65a2.18 2.18 0 0 1-1.521.478c-.579-.057-1.056-.26-1.433-.608-.492-.637-1.158-1.143-1.997-1.52-.811-.376-1.752-.564-2.823-.564-.435 0-.912.058-1.434.174a2.533 2.533 0 0 0-1.302.65c-.377.32-.565.84-.565 1.564 0 .666.217 1.202.651 1.607.435.377 1.014.695 1.738.956.752.231 1.549.463 2.388.695.869.231 1.752.506 2.649.825.898.318 1.723.738 2.476 1.26a5.91 5.91 0 0 1 1.824 2.04c.463.811.695 1.853.695 3.127 0 1.477-.434 2.736-1.303 3.779-.869 1.042-1.954 1.838-3.257 2.388a10.673 10.673 0 0 1-3.996.782c-1.708 0-3.416-.29-5.124-.868-1.709-.608-3.127-1.665-4.257-3.17ZM101.413 2.443c1.274 0 2.251.333 2.932.999.694.651 1.042 1.578 1.042 2.78 0 .636-.145 1.222-.434 1.758-.29.536-.717.963-1.282 1.281-.55.319-1.23.492-2.041.521l-.043-.608c.507 0 1.028.073 1.563.218a4.61 4.61 0 0 1 1.477.694c.463.319.832.739 1.107 1.26.29.521.435 1.165.435 1.932 0 .826-.138 1.52-.413 2.085-.275.55-.644.999-1.107 1.346a4.332 4.332 0 0 1-1.52.717 6.55 6.55 0 0 1-1.672.217h-5.711a.858.858 0 0 1-.63-.26.899.899 0 0 1-.239-.63V3.31c0-.246.08-.448.239-.608a.858.858 0 0 1 .63-.26h5.667Zm-.26 1.715h-4.67l.261-.39v5.406l-.238-.282h4.69c.637 0 1.18-.203 1.629-.608.463-.42.694-1.035.694-1.846 0-.723-.209-1.28-.629-1.672-.42-.405-.999-.608-1.737-.608Zm.173 6.471h-4.734l.152-.152v5.668l-.173-.196h4.82c.855 0 1.549-.217 2.085-.651.55-.434.825-1.107.825-2.02 0-.709-.145-1.252-.434-1.628a2.184 2.184 0 0 0-1.129-.804 4.576 4.576 0 0 0-1.412-.217ZM118.01 6.308c.246 0 .449.087.608.26.174.16.261.363.261.609v9.576a.857.857 0 0 1-.261.63.788.788 0 0 1-.608.26.816.816 0 0 1-.63-.26.9.9 0 0 1-.238-.63V14.69l.412-.043c0 .318-.108.665-.326 1.042a4.282 4.282 0 0 1-.89 1.064 5.102 5.102 0 0 1-1.346.803 4.406 4.406 0 0 1-1.651.304c-.984 0-1.867-.253-2.649-.76-.781-.52-1.404-1.223-1.867-2.106-.449-.883-.673-1.89-.673-3.018 0-1.144.224-2.15.673-3.019.463-.883 1.086-1.57 1.867-2.063a4.693 4.693 0 0 1 2.606-.76c.623 0 1.202.102 1.737.304.536.203.999.478 1.39.825.405.348.717.732.934 1.151.231.42.347.84.347 1.26l-.564-.13V7.177c0-.246.079-.45.238-.608.16-.174.37-.261.63-.261Zm-4.473 9.945c.724 0 1.361-.188 1.911-.564a3.709 3.709 0 0 0 1.303-1.52c.318-.652.477-1.383.477-2.193 0-.797-.159-1.513-.477-2.15-.304-.652-.739-1.158-1.303-1.52-.55-.377-1.187-.565-1.911-.565-.709 0-1.346.181-1.911.543-.55.362-.984.861-1.303 1.498-.318.637-.478 1.368-.478 2.194 0 .81.152 1.541.456 2.193a3.936 3.936 0 0 0 1.303 1.52c.565.376 1.209.564 1.933.564ZM124.009 16.753a.857.857 0 0 1-.261.63.855.855 0 0 1-.629.26.788.788 0 0 1-.608-.26.895.895 0 0 1-.239-.63V2.443a.82.82 0 0 1 .239-.608.855.855 0 0 1 .629-.26c.261 0 .471.086.63.26.159.159.239.362.239.608v14.31ZM129.05 16.753a.856.856 0 0 1-.26.63.788.788 0 0 1-.608.26.813.813 0 0 1-.63-.26.9.9 0 0 1-.239-.63V7.11c0-.246.08-.448.239-.608a.86.86 0 0 1 .63-.26c.246 0 .449.087.608.26.174.16.26.362.26.608v9.642Zm-.868-11.965c-.362 0-.63-.072-.804-.217-.173-.145-.26-.37-.26-.673v-.304c0-.304.094-.529.282-.673.188-.145.456-.218.804-.218.347 0 .608.073.781.218.174.144.261.369.261.673v.304c0 .304-.094.528-.282.673-.174.145-.435.217-.782.217ZM139.345 2.421c.131 0 .268.036.413.109a.932.932 0 0 1 .369.282l5.754 8.708-.76-.022 5.82-8.686c.188-.275.434-.405.738-.39a.962.962 0 0 1 .608.26c.174.159.261.369.261.63v13.44a.857.857 0 0 1-.261.63.883.883 0 0 1-.651.261.885.885 0 0 1-.652-.26.86.86 0 0 1-.26-.63V4.962l.543.108-5.125 7.796a1.169 1.169 0 0 1-.326.26.685.685 0 0 1-.369.11.802.802 0 0 1-.391-.11 1.164 1.164 0 0 1-.325-.26l-5.06-7.796.456-.564v12.247a.9.9 0 0 1-.239.63.788.788 0 0 1-.608.26.788.788 0 0 1-.608-.26.95.95 0 0 1-.217-.63V3.31c0-.231.08-.434.239-.608a.85.85 0 0 1 .651-.282ZM166.711 11.997c0 1.13-.254 2.136-.76 3.019a5.487 5.487 0 0 1-2.02 2.084c-.839.507-1.788.76-2.844.76-1.057 0-2.013-.253-2.867-.76a5.645 5.645 0 0 1-2.041-2.084c-.492-.883-.738-1.89-.738-3.019 0-1.129.246-2.135.738-3.018a5.645 5.645 0 0 1 2.041-2.085c.854-.506 1.81-.76 2.867-.76 1.056 0 2.005.254 2.844.76a5.487 5.487 0 0 1 2.02 2.085c.506.883.76 1.89.76 3.018Zm-1.738 0c0-.84-.173-1.578-.521-2.215a3.755 3.755 0 0 0-1.389-1.498c-.579-.362-1.238-.543-1.976-.543-.739 0-1.405.181-1.998.543a3.964 3.964 0 0 0-1.39 1.498c-.347.637-.521 1.376-.521 2.215 0 .825.174 1.556.521 2.194a4.138 4.138 0 0 0 1.39 1.52 3.758 3.758 0 0 0 1.998.542c.738 0 1.397-.18 1.976-.543a3.911 3.911 0 0 0 1.389-1.52c.348-.636.521-1.367.521-2.193ZM169.218 6.221c.173 0 .34.05.499.152a.765.765 0 0 1 .347.391l3.605 8.469-.347.173 3.669-8.62c.16-.391.427-.58.804-.565a.81.81 0 0 1 .564.217.7.7 0 0 1 .239.543.818.818 0 0 1-.043.26.794.794 0 0 1-.065.196l-4.191 9.642c-.159.361-.413.55-.76.564a1.021 1.021 0 0 1-.543-.108.868.868 0 0 1-.348-.456l-4.19-9.62a2.586 2.586 0 0 1-.087-.196 1.306 1.306 0 0 1-.022-.26c0-.188.072-.362.217-.521.159-.174.376-.26.652-.26ZM186.028 17.86c-1.158 0-2.171-.246-3.04-.738a5.365 5.365 0 0 1-2.041-2.02c-.478-.868-.717-1.867-.717-2.996 0-1.26.246-2.33.739-3.214.506-.897 1.158-1.578 1.954-2.041a4.972 4.972 0 0 1 2.562-.717c.666 0 1.31.123 1.933.37a4.811 4.811 0 0 1 1.65 1.085 5.22 5.22 0 0 1 1.151 1.694c.29.651.442 1.383.456 2.193a.767.767 0 0 1-.26.586.873.873 0 0 1-.608.24h-8.578l-.391-1.499h8.361l-.348.304v-.478c-.058-.593-.26-1.1-.608-1.52a3.315 3.315 0 0 0-1.238-.999 3.436 3.436 0 0 0-1.52-.347c-.434 0-.868.08-1.303.239a3.01 3.01 0 0 0-1.15.738c-.333.333-.608.767-.826 1.303-.202.536-.304 1.18-.304 1.933 0 .84.167 1.577.5 2.214a4.014 4.014 0 0 0 1.433 1.52c.608.363 1.317.543 2.128.543.507 0 .948-.065 1.325-.195a4.1 4.1 0 0 0 .977-.478c.275-.202.506-.405.695-.608.188-.13.369-.195.543-.195.217 0 .39.072.521.217a.713.713 0 0 1 .217.521c0 .246-.116.463-.348.652-.405.448-.955.846-1.65 1.194-.695.333-1.433.5-2.215.5ZM198.65 6.243c.984 0 1.78.253 2.388.76.623.492 1.035 1.194 1.238 2.106h-.326l.152-.39c.174-.406.471-.797.891-1.173a5.538 5.538 0 0 1 1.455-.934 4.156 4.156 0 0 1 1.715-.37c.955 0 1.708.21 2.258.63.55.406.941.956 1.173 1.651.246.68.369 1.448.369 2.302v5.928a.86.86 0 0 1-.26.63.79.79 0 0 1-.608.26.813.813 0 0 1-.63-.26.9.9 0 0 1-.239-.63v-5.885c0-.564-.087-1.071-.261-1.52a2.115 2.115 0 0 0-.803-1.086c-.362-.275-.861-.412-1.498-.412-.594 0-1.137.137-1.629.412-.492.26-.883.623-1.173 1.086a2.747 2.747 0 0 0-.434 1.52v5.885a.9.9 0 0 1-.239.63.813.813 0 0 1-.629.26.858.858 0 0 1-.63-.26.9.9 0 0 1-.239-.63v-5.95c0-.55-.08-1.042-.239-1.477a2.046 2.046 0 0 0-.76-1.064c-.362-.275-.861-.412-1.498-.412-.579 0-1.108.137-1.585.412-.478.26-.862.616-1.151 1.064-.29.435-.435.927-.435 1.477v5.95a.856.856 0 0 1-.26.63.788.788 0 0 1-.608.26.86.86 0 0 1-.63-.26.9.9 0 0 1-.239-.63V7.285c0-.246.08-.449.239-.608a.86.86 0 0 1 .63-.26c.26 0 .47.086.629.26a.82.82 0 0 1 .239.608v1.65l-.477.522a3.03 3.03 0 0 1 .434-1.13c.246-.376.557-.723.934-1.042a4.636 4.636 0 0 1 1.259-.76 3.887 3.887 0 0 1 1.477-.282ZM218.367 17.86c-1.158 0-2.171-.246-3.04-.738a5.358 5.358 0 0 1-2.041-2.02c-.478-.868-.717-1.867-.717-2.996 0-1.26.246-2.33.739-3.214.506-.897 1.158-1.578 1.954-2.041a4.972 4.972 0 0 1 2.562-.717c.666 0 1.31.123 1.933.37a4.82 4.82 0 0 1 1.65 1.085 5.22 5.22 0 0 1 1.151 1.694c.29.651.442 1.383.456 2.193a.764.764 0 0 1-.261.586.87.87 0 0 1-.608.24h-8.577l-.391-1.499h8.36l-.347.304v-.478c-.058-.593-.261-1.1-.608-1.52a3.323 3.323 0 0 0-1.238-.999 3.436 3.436 0 0 0-1.52-.347c-.434 0-.868.08-1.303.239a3.02 3.02 0 0 0-1.151.738c-.333.333-.608.767-.825 1.303-.202.536-.304 1.18-.304 1.933 0 .84.167 1.577.5 2.214a4.014 4.014 0 0 0 1.433 1.52c.608.363 1.317.543 2.128.543.507 0 .948-.065 1.325-.195a4.1 4.1 0 0 0 .977-.478c.275-.202.506-.405.695-.608.188-.13.369-.195.542-.195.218 0 .391.072.522.217a.713.713 0 0 1 .217.521c0 .246-.116.463-.348.652-.405.448-.955.846-1.65 1.194-.695.333-1.433.5-2.215.5ZM231.206 6.134c.984 0 1.759.203 2.323.608.565.406.963.949 1.195 1.629.246.68.369 1.44.369 2.28v6.102a.857.857 0 0 1-.261.63.788.788 0 0 1-.608.26.86.86 0 0 1-.63-.26.9.9 0 0 1-.238-.63v-6.059c0-.55-.087-1.042-.261-1.476a2.08 2.08 0 0 0-.825-1.064c-.377-.275-.898-.413-1.564-.413-.608 0-1.165.138-1.672.413a3.22 3.22 0 0 0-1.216 1.064 2.513 2.513 0 0 0-.456 1.476v6.059a.86.86 0 0 1-.26.63.79.79 0 0 1-.608.26.86.86 0 0 1-.63-.26.9.9 0 0 1-.239-.63V7.285c0-.246.08-.449.239-.608a.86.86 0 0 1 .63-.26c.26 0 .47.086.629.26a.82.82 0 0 1 .239.608v1.542l-.434.478a2.98 2.98 0 0 1 .499-1.13c.261-.39.587-.738.978-1.042.39-.304.825-.543 1.302-.716a4.057 4.057 0 0 1 1.499-.283ZM237.872 6.482h5.103c.231 0 .42.08.564.239a.77.77 0 0 1 .239.564.794.794 0 0 1-.239.587.762.762 0 0 1-.564.217h-5.103a.774.774 0 0 1-.565-.24.798.798 0 0 1-.239-.586c0-.217.08-.398.239-.542a.774.774 0 0 1 .565-.24Zm2.28-2.953c.246 0 .449.086.608.26.159.16.239.362.239.608v10.488c0 .348.05.608.152.782a.865.865 0 0 0 .391.37c.173.057.34.086.499.086a.934.934 0 0 0 .369-.065.862.862 0 0 1 .391-.087c.145 0 .275.073.391.217.13.13.195.304.195.521 0 .261-.152.485-.456.674a2.02 2.02 0 0 1-1.02.26c-.203 0-.456-.014-.76-.043a2.265 2.265 0 0 1-.869-.283c-.289-.159-.535-.42-.738-.781-.188-.377-.282-.898-.282-1.564V4.397c0-.246.086-.449.26-.608a.86.86 0 0 1 .63-.26ZM246.716 17.621c-.304 0-.543-.086-.717-.26-.159-.174-.239-.413-.239-.717v-.434c0-.319.08-.565.239-.738.174-.174.413-.26.717-.26h.174c.318 0 .557.086.716.26.159.173.239.42.239.738v.434c0 .304-.08.543-.239.717-.159.174-.398.26-.716.26h-.174ZM98.055 76.001c.651 0 1.23.123 1.737.367.507.244.932.588 1.276 1.031.353.435.615.941.787 1.52.181.57.271 1.181.271 1.832 0 .878-.158 1.679-.475 2.403a4.033 4.033 0 0 1-1.384 1.71c-.597.425-1.334.638-2.212.638H94.81a.837.837 0 0 1-.597-.231.837.837 0 0 1-.23-.597v-7.845a.812.812 0 0 1 .828-.828h3.243Zm-.136 7.94c.57 0 1.036-.145 1.398-.434.362-.299.624-.688.787-1.168a4.75 4.75 0 0 0 .258-1.588c0-.425-.05-.827-.149-1.207a2.97 2.97 0 0 0-.434-1.018 2.181 2.181 0 0 0-.76-.706c-.308-.172-.675-.258-1.1-.258h-2.375l.136-.122v6.65l-.082-.15h2.321ZM107.075 85.637c-.769 0-1.438-.158-2.008-.475a3.437 3.437 0 0 1-1.303-1.316c-.299-.552-.448-1.176-.448-1.873 0-.814.163-1.507.489-2.076a3.533 3.533 0 0 1 1.303-1.33 3.342 3.342 0 0 1 1.696-.462c.461 0 .896.095 1.303.285.416.19.783.452 1.099.787.317.326.566.706.747 1.14.19.434.285.896.285 1.385a.696.696 0 0 1-.258.529.864.864 0 0 1-.57.203h-5.185l-.407-1.357h4.981l-.299.272v-.367a1.214 1.214 0 0 0-.285-.706 1.66 1.66 0 0 0-.624-.488 1.682 1.682 0 0 0-.787-.19c-.271 0-.525.036-.76.109a1.458 1.458 0 0 0-.611.366 1.783 1.783 0 0 0-.407.692c-.099.29-.149.656-.149 1.1 0 .488.099.904.298 1.248.209.335.471.593.788.773.325.172.669.258 1.031.258.335 0 .602-.027.801-.081a1.85 1.85 0 0 0 .475-.19c.126-.082.24-.15.339-.204.163-.081.317-.122.462-.122.199 0 .361.068.488.204a.65.65 0 0 1 .204.475c0 .244-.127.466-.38.665-.236.199-.566.375-.991.53a4.059 4.059 0 0 1-1.317.216ZM111.92 78.24a.88.88 0 0 1 .475.136.757.757 0 0 1 .326.38l1.995 4.56-.299.136 2.036-4.682c.154-.362.394-.534.719-.516.227 0 .407.073.543.217a.675.675 0 0 1 .177.72c-.018.072-.041.14-.068.203l-2.538 5.592c-.145.326-.376.498-.692.516a.763.763 0 0 1-.502-.095.86.86 0 0 1-.353-.421l-2.525-5.592-.068-.176a1.08 1.08 0 0 1-.027-.258c0-.163.073-.321.217-.475a.743.743 0 0 1 .584-.244ZM122.569 85.637c-.769 0-1.439-.158-2.009-.475a3.437 3.437 0 0 1-1.303-1.316c-.298-.552-.447-1.176-.447-1.873 0-.814.162-1.507.488-2.076a3.54 3.54 0 0 1 1.303-1.33 3.346 3.346 0 0 1 1.697-.462c.461 0 .895.095 1.302.285a3.5 3.5 0 0 1 1.1.787c.316.326.565.706.746 1.14.19.434.285.896.285 1.385a.696.696 0 0 1-.258.529.864.864 0 0 1-.57.203h-5.184l-.407-1.357h4.981l-.299.272v-.367a1.214 1.214 0 0 0-.285-.706 1.675 1.675 0 0 0-.624-.488 1.688 1.688 0 0 0-.787-.19c-.272 0-.525.036-.76.109a1.452 1.452 0 0 0-.611.366 1.77 1.77 0 0 0-.407.692c-.1.29-.15.656-.15 1.1 0 .488.1.904.299 1.248.208.335.47.593.787.773.326.172.67.258 1.032.258.334 0 .601-.027.8-.081.199-.054.358-.118.475-.19.127-.082.24-.15.34-.204a1.03 1.03 0 0 1 .461-.122.64.64 0 0 1 .489.204.653.653 0 0 1 .203.475c0 .244-.126.466-.38.665-.235.199-.565.375-.991.53a4.057 4.057 0 0 1-1.316.216ZM128.918 84.674a.812.812 0 0 1-.827.828.772.772 0 0 1-.57-.231.837.837 0 0 1-.231-.597v-8.388a.81.81 0 0 1 .828-.828c.235 0 .425.082.57.245a.79.79 0 0 1 .23.583v8.388ZM137.723 81.878c0 .742-.167 1.398-.502 1.968-.326.56-.769 1-1.33 1.316a3.669 3.669 0 0 1-1.859.475 3.742 3.742 0 0 1-1.873-.475 3.639 3.639 0 0 1-1.33-1.316c-.326-.57-.489-1.226-.489-1.968s.163-1.393.489-1.954a3.607 3.607 0 0 1 1.33-1.33 3.66 3.66 0 0 1 1.873-.489c.687 0 1.307.163 1.859.489a3.48 3.48 0 0 1 1.33 1.33c.335.56.502 1.212.502 1.954Zm-1.628 0c0-.462-.095-.86-.285-1.194a1.994 1.994 0 0 0-.747-.801 1.92 1.92 0 0 0-1.031-.285c-.38 0-.729.095-1.045.285-.308.19-.557.457-.747.8-.181.335-.271.733-.271 1.195 0 .452.09.85.271 1.194.19.335.439.597.747.787.316.19.665.285 1.045.285.38 0 .724-.095 1.031-.285.317-.19.566-.452.747-.787.19-.344.285-.742.285-1.194ZM142.908 78.105c.633 0 1.199.163 1.697.489.506.316.904.755 1.194 1.316.298.561.448 1.212.448 1.954s-.15 1.398-.448 1.968a3.44 3.44 0 0 1-1.181 1.33 2.975 2.975 0 0 1-1.656.475c-.362 0-.701-.058-1.018-.176a3.388 3.388 0 0 1-.841-.448 2.88 2.88 0 0 1-.556-.543c-.127-.19-.19-.348-.19-.475l.42-.176v3.57c0 .234-.077.429-.23.583a.77.77 0 0 1-.584.244.793.793 0 0 1-.584-.23.81.81 0 0 1-.23-.598v-8.32c0-.235.077-.43.23-.583a.77.77 0 0 1 .584-.244.77.77 0 0 1 .584.244c.153.154.23.348.23.584v.665l-.23-.123c0-.117.063-.257.19-.42.126-.172.298-.34.515-.502.217-.172.466-.313.747-.421.289-.109.592-.163.909-.163Zm-.204 1.493c-.398 0-.746.1-1.045.299a2.07 2.07 0 0 0-.705.814c-.163.335-.245.72-.245 1.153 0 .426.082.815.245 1.167.172.344.407.616.705.815.299.199.647.298 1.045.298.399 0 .742-.1 1.032-.298.298-.2.529-.47.692-.815.172-.352.258-.741.258-1.167 0-.434-.086-.819-.258-1.153a1.972 1.972 0 0 0-.692-.814c-.29-.2-.633-.3-1.032-.3ZM149.204 84.674a.84.84 0 0 1-.23.597.793.793 0 0 1-.584.23.793.793 0 0 1-.584-.23.84.84 0 0 1-.23-.597v-5.605c0-.236.077-.43.23-.584a.77.77 0 0 1 .584-.244.77.77 0 0 1 .584.244c.153.154.23.348.23.584v5.605Zm-.828-7.316c-.307 0-.524-.05-.651-.149-.127-.1-.19-.276-.19-.529v-.258c0-.262.068-.439.204-.53.144-.099.362-.148.651-.148.317 0 .538.05.665.149.127.1.19.276.19.53v.257c0 .262-.068.443-.203.543-.136.09-.358.136-.666.136ZM154.76 78.105c.669 0 1.176.14 1.52.42.353.281.592.657.719 1.127.136.462.204.977.204 1.547v3.475a.837.837 0 0 1-.231.597.791.791 0 0 1-.584.23.79.79 0 0 1-.583-.23.837.837 0 0 1-.231-.597v-3.475c0-.298-.041-.565-.122-.8a1.083 1.083 0 0 0-.407-.584c-.199-.145-.484-.217-.855-.217-.362 0-.67.072-.923.217-.245.145-.435.34-.57.584-.127.235-.19.502-.19.8v3.475a.837.837 0 0 1-.231.597.791.791 0 0 1-.584.23.79.79 0 0 1-.583-.23.837.837 0 0 1-.231-.597v-5.605a.79.79 0 0 1 .231-.584.768.768 0 0 1 .583-.244c.236 0 .43.081.584.244a.79.79 0 0 1 .231.584v.583l-.204-.04c.082-.154.199-.317.353-.49.154-.18.335-.347.543-.501.208-.154.443-.276.706-.367.262-.1.547-.149.855-.149ZM161.976 78.105a2.982 2.982 0 0 1 1.859.624c.235.181.416.367.543.557.136.18.204.335.204.461l-.353.177v-.991c0-.235.077-.43.23-.584a.77.77 0 0 1 .584-.244c.235 0 .43.077.584.23a.81.81 0 0 1 .23.598v6.04c0 .786-.172 1.415-.515 1.886-.335.48-.779.823-1.33 1.031a4.813 4.813 0 0 1-1.778.326c-.181 0-.417-.023-.706-.068-.29-.045-.566-.1-.828-.163a4.671 4.671 0 0 1-.597-.176c-.272-.118-.462-.267-.57-.448a.659.659 0 0 1-.054-.556c.081-.263.212-.444.393-.543.181-.09.371-.1.57-.028.091.028.24.082.448.163.208.082.434.154.679.218.253.072.475.108.665.108.678 0 1.18-.136 1.506-.407.326-.272.489-.647.489-1.127v-1.18l.163.122c0 .118-.064.262-.19.434a2.35 2.35 0 0 1-.503.489 3.076 3.076 0 0 1-.746.42c-.29.109-.597.163-.923.163a3.254 3.254 0 0 1-1.737-.475 3.469 3.469 0 0 1-1.222-1.33c-.298-.57-.447-1.221-.447-1.954 0-.742.149-1.393.447-1.954a3.385 3.385 0 0 1 1.208-1.33 3.074 3.074 0 0 1 1.697-.489Zm.258 1.493c-.407 0-.765.1-1.072.299-.308.198-.548.47-.72.814a2.573 2.573 0 0 0-.258 1.167c0 .425.086.81.258 1.153.172.344.412.616.72.815.307.199.665.298 1.072.298.416 0 .778-.1 1.085-.298.308-.2.548-.47.72-.815.172-.343.258-.728.258-1.153 0-.434-.086-.823-.258-1.167a2.027 2.027 0 0 0-.72-.814 1.95 1.95 0 0 0-1.085-.3ZM175.805 76.001c.869 0 1.516.204 1.941.611.425.407.638 1.009.638 1.805 0 .425-.104.8-.313 1.127-.208.316-.515.565-.922.746-.408.172-.91.258-1.507.258l.054-.61c.281 0 .602.04.964.121.362.073.71.208 1.045.407.344.19.624.462.841.815.227.344.34.787.34 1.33 0 .597-.1 1.085-.299 1.466-.19.38-.443.674-.76.882a3.059 3.059 0 0 1-1.018.434c-.362.072-.71.109-1.045.109h-3.379a.838.838 0 0 1-.597-.231.837.837 0 0 1-.231-.597v-7.845a.812.812 0 0 1 .828-.828h3.42Zm-.244 1.602h-2.416l.176-.217v2.456l-.162-.122h2.442c.263 0 .498-.086.706-.258.208-.172.312-.42.312-.746 0-.39-.099-.67-.298-.842-.19-.18-.444-.271-.76-.271Zm.108 3.719h-2.47l.122-.11v2.865l-.135-.136h2.578c.416 0 .747-.109.991-.326.244-.226.366-.56.366-1.004 0-.407-.081-.701-.244-.882a1.046 1.046 0 0 0-.583-.34 3.217 3.217 0 0 0-.625-.067ZM183.721 85.637c-.769 0-1.438-.158-2.008-.475a3.43 3.43 0 0 1-1.303-1.316c-.299-.552-.448-1.176-.448-1.873 0-.814.163-1.507.489-2.076a3.538 3.538 0 0 1 1.302-1.33 3.348 3.348 0 0 1 1.697-.462c.461 0 .896.095 1.303.285.416.19.782.452 1.099.787.317.326.566.706.747 1.14.19.434.285.896.285 1.385a.696.696 0 0 1-.258.529.864.864 0 0 1-.57.203h-5.185l-.407-1.357h4.981l-.299.272v-.367a1.214 1.214 0 0 0-.285-.706 1.667 1.667 0 0 0-.624-.488 1.685 1.685 0 0 0-.787-.19c-.272 0-.525.036-.76.109a1.458 1.458 0 0 0-.611.366 1.783 1.783 0 0 0-.407.692c-.1.29-.149.656-.149 1.1 0 .488.099.904.298 1.248.208.335.471.593.787.773.326.172.67.258 1.032.258.335 0 .602-.027.801-.081a1.85 1.85 0 0 0 .475-.19c.126-.082.239-.15.339-.204.163-.081.317-.122.461-.122a.64.64 0 0 1 .489.204.65.65 0 0 1 .204.475c0 .244-.127.466-.38.665-.236.199-.566.375-.991.53a4.059 4.059 0 0 1-1.317.216ZM193.628 78.24a.77.77 0 0 1 .584.245.79.79 0 0 1 .23.584v5.768c0 .832-.158 1.492-.475 1.981a2.609 2.609 0 0 1-1.248 1.072c-.525.217-1.113.326-1.764.326-.29 0-.598-.023-.923-.068a3.11 3.11 0 0 1-.801-.203c-.271-.118-.461-.267-.57-.448a.659.659 0 0 1-.054-.557c.081-.262.212-.443.393-.543.181-.09.371-.1.57-.027.145.045.335.113.57.204.235.1.507.149.815.149.416 0 .76-.059 1.031-.176.28-.109.489-.299.624-.57.145-.263.217-.625.217-1.086v-.91l.285.326a2.397 2.397 0 0 1-.583.747c-.226.19-.498.334-.814.434-.317.1-.679.15-1.086.15-.48 0-.9-.11-1.262-.326a2.335 2.335 0 0 1-.828-.923 2.995 2.995 0 0 1-.299-1.358V79.07a.79.79 0 0 1 .231-.584.768.768 0 0 1 .584-.244c.235 0 .429.081.583.244a.79.79 0 0 1 .231.584v3.474c0 .588.126 1.004.38 1.248.262.236.624.353 1.086.353.316 0 .583-.058.8-.176.217-.127.385-.308.502-.543.118-.244.177-.538.177-.882v-3.474a.79.79 0 0 1 .231-.584.766.766 0 0 1 .583-.244ZM203.183 81.878c0 .742-.167 1.398-.502 1.968-.326.56-.769 1-1.33 1.316a3.669 3.669 0 0 1-1.859.475 3.742 3.742 0 0 1-1.873-.475 3.631 3.631 0 0 1-1.33-1.316c-.326-.57-.489-1.226-.489-1.968s.163-1.393.489-1.954a3.6 3.6 0 0 1 1.33-1.33 3.66 3.66 0 0 1 1.873-.489c.687 0 1.307.163 1.859.489a3.48 3.48 0 0 1 1.33 1.33c.335.56.502 1.212.502 1.954Zm-1.628 0c0-.462-.095-.86-.285-1.194a1.994 1.994 0 0 0-1.778-1.086c-.38 0-.729.095-1.045.285-.308.19-.557.457-.747.8-.181.335-.271.733-.271 1.195 0 .452.09.85.271 1.194.19.335.439.597.747.787.316.19.665.285 1.045.285.38 0 .723-.095 1.031-.285.317-.19.566-.452.747-.787.19-.344.285-.742.285-1.194ZM208.49 78.105c.67 0 1.176.14 1.52.42.353.281.593.657.719 1.127.136.462.204.977.204 1.547v3.475a.837.837 0 0 1-.231.597.79.79 0 0 1-.583.23.791.791 0 0 1-.584-.23.837.837 0 0 1-.231-.597v-3.475c0-.298-.04-.565-.122-.8a1.078 1.078 0 0 0-.407-.584c-.199-.145-.484-.217-.855-.217-.362 0-.67.072-.923.217-.244.145-.434.34-.57.584-.127.235-.19.502-.19.8v3.475a.837.837 0 0 1-.231.597.789.789 0 0 1-.583.23.793.793 0 0 1-.584-.23.837.837 0 0 1-.231-.597v-5.605a.79.79 0 0 1 .231-.584.77.77 0 0 1 .584-.244c.235 0 .43.081.583.244a.79.79 0 0 1 .231.584v.583l-.204-.04c.082-.154.2-.317.353-.49.154-.18.335-.347.543-.501.208-.154.444-.276.706-.367.262-.1.547-.149.855-.149ZM218.638 75.459a.79.79 0 0 1 .583.23.808.808 0 0 1 .231.597v8.388a.837.837 0 0 1-.231.597.79.79 0 0 1-.583.23.791.791 0 0 1-.584-.23.837.837 0 0 1-.231-.597v-.665l.299.122c0 .118-.063.262-.19.434a2.716 2.716 0 0 1-.516.489 3.297 3.297 0 0 1-.773.42 2.69 2.69 0 0 1-.95.163c-.625 0-1.19-.158-1.697-.475a3.506 3.506 0 0 1-1.208-1.33c-.289-.57-.434-1.221-.434-1.954 0-.742.145-1.393.434-1.954a3.415 3.415 0 0 1 1.195-1.33 2.955 2.955 0 0 1 1.655-.489 3.133 3.133 0 0 1 1.914.624c.244.181.43.367.556.557.136.18.204.335.204.461l-.489.177v-3.638a.79.79 0 0 1 .231-.583.768.768 0 0 1 .584-.245Zm-2.742 8.685c.398 0 .747-.1 1.045-.298.299-.2.529-.47.692-.815.172-.343.258-.728.258-1.153 0-.434-.086-.823-.258-1.167a1.964 1.964 0 0 0-.692-.814 1.838 1.838 0 0 0-1.045-.3c-.389 0-.733.1-1.031.3-.299.198-.534.47-.706.814a2.691 2.691 0 0 0-.244 1.167c0 .425.081.81.244 1.153.172.344.407.616.706.815.298.199.642.298 1.031.298ZM229.403 76.001c.868 0 1.515.204 1.941.611.425.407.637 1.009.637 1.805 0 .425-.104.8-.312 1.127-.208.316-.515.565-.923.746-.407.172-.909.258-1.506.258l.054-.61c.281 0 .602.04.964.121.362.073.71.208 1.045.407.344.19.624.462.841.815.226.344.34.787.34 1.33 0 .597-.1 1.085-.299 1.466-.19.38-.443.674-.76.882a3.068 3.068 0 0 1-1.018.434c-.362.072-.71.109-1.045.109h-3.379a.834.834 0 0 1-.597-.231.837.837 0 0 1-.231-.597v-7.845a.81.81 0 0 1 .828-.828h3.42Zm-.245 1.602h-2.415l.176-.217v2.456l-.163-.122h2.443c.263 0 .498-.086.706-.258.208-.172.312-.42.312-.746 0-.39-.099-.67-.299-.842-.19-.18-.443-.271-.76-.271Zm.109 3.719h-2.47l.122-.11v2.865l-.136-.136h2.579c.416 0 .747-.109.991-.326.244-.226.366-.56.366-1.004 0-.407-.081-.701-.244-.882a1.046 1.046 0 0 0-.584-.34 3.2 3.2 0 0 0-.624-.067ZM240.943 81.878c0 .742-.168 1.398-.502 1.968-.326.56-.769 1-1.33 1.316a3.67 3.67 0 0 1-1.86.475 3.745 3.745 0 0 1-1.873-.475 3.639 3.639 0 0 1-1.33-1.316c-.325-.57-.488-1.226-.488-1.968s.163-1.393.488-1.954a3.607 3.607 0 0 1 1.33-1.33 3.663 3.663 0 0 1 1.873-.489 3.59 3.59 0 0 1 1.86.489 3.48 3.48 0 0 1 1.33 1.33c.334.56.502 1.212.502 1.954Zm-1.629 0c0-.462-.095-.86-.285-1.194a1.998 1.998 0 0 0-.746-.801 1.926 1.926 0 0 0-1.032-.285c-.38 0-.728.095-1.045.285a2.13 2.13 0 0 0-.746.8c-.181.335-.272.733-.272 1.195 0 .452.091.85.272 1.194.19.335.439.597.746.787.317.19.665.285 1.045.285.38 0 .724-.095 1.032-.285.316-.19.565-.452.746-.787.19-.344.285-.742.285-1.194ZM247.756 78.24a.77.77 0 0 1 .584.245.79.79 0 0 1 .23.584v3.447c0 .959-.267 1.719-.8 2.28-.534.56-1.303.841-2.308.841-1.004 0-1.773-.28-2.307-.841-.524-.561-.787-1.321-.787-2.28v-3.447a.79.79 0 0 1 .231-.584.768.768 0 0 1 .583-.244c.236 0 .43.081.584.244a.79.79 0 0 1 .231.584v3.447c0 .552.122.963.366 1.235.244.262.611.393 1.099.393.498 0 .869-.13 1.113-.393.245-.272.367-.683.367-1.235v-3.447a.79.79 0 0 1 .231-.584.766.766 0 0 1 .583-.244ZM254.215 78.105c.67 0 1.176.14 1.52.42.353.281.593.657.719 1.127.136.462.204.977.204 1.547v3.475a.837.837 0 0 1-.231.597.79.79 0 0 1-.583.23.791.791 0 0 1-.584-.23.837.837 0 0 1-.231-.597v-3.475c0-.298-.04-.565-.122-.8a1.078 1.078 0 0 0-.407-.584c-.199-.145-.484-.217-.855-.217-.362 0-.669.072-.923.217-.244.145-.434.34-.57.584a1.67 1.67 0 0 0-.19.8v3.475a.837.837 0 0 1-.231.597.789.789 0 0 1-.583.23.793.793 0 0 1-.584-.23.836.836 0 0 1-.23-.597v-5.605a.79.79 0 0 1 .23-.584.77.77 0 0 1 .584-.244c.235 0 .43.081.583.244a.79.79 0 0 1 .231.584v.583l-.203-.04c.081-.154.199-.317.352-.49.154-.18.335-.347.543-.501.208-.154.444-.276.706-.367.262-.1.547-.149.855-.149ZM264.363 75.459a.79.79 0 0 1 .583.23.808.808 0 0 1 .231.597v8.388a.837.837 0 0 1-.231.597.79.79 0 0 1-.583.23.791.791 0 0 1-.584-.23.837.837 0 0 1-.231-.597v-.665l.299.122c0 .118-.063.262-.19.434a2.716 2.716 0 0 1-.516.489 3.297 3.297 0 0 1-.773.42 2.69 2.69 0 0 1-.95.163c-.625 0-1.19-.158-1.697-.475a3.514 3.514 0 0 1-1.208-1.33c-.289-.57-.434-1.221-.434-1.954 0-.742.145-1.393.434-1.954a3.415 3.415 0 0 1 1.195-1.33 2.955 2.955 0 0 1 1.655-.489 3.143 3.143 0 0 1 1.914.624c.244.181.43.367.556.557.136.18.204.335.204.461l-.489.177v-3.638a.79.79 0 0 1 .231-.583.768.768 0 0 1 .584-.245Zm-2.742 8.685c.398 0 .747-.1 1.045-.298.299-.2.53-.47.692-.815.172-.343.258-.728.258-1.153 0-.434-.086-.823-.258-1.167a1.957 1.957 0 0 0-.692-.814 1.838 1.838 0 0 0-1.045-.3c-.389 0-.733.1-1.031.3-.299.198-.534.47-.706.814a2.691 2.691 0 0 0-.244 1.167c0 .425.081.81.244 1.153.172.344.407.616.706.815.298.199.642.298 1.031.298ZM272.885 78.105c.235 0 .43.077.583.23a.808.808 0 0 1 .231.598v5.74a.837.837 0 0 1-.231.598.789.789 0 0 1-.583.23.793.793 0 0 1-.584-.23.836.836 0 0 1-.23-.597v-.665l.298.122c0 .118-.063.262-.19.434a2.686 2.686 0 0 1-.516.489 3.297 3.297 0 0 1-.773.42c-.29.109-.606.163-.95.163-.625 0-1.19-.158-1.697-.475a3.514 3.514 0 0 1-1.208-1.33c-.289-.57-.434-1.221-.434-1.954 0-.742.145-1.393.434-1.954a3.415 3.415 0 0 1 1.195-1.33 2.955 2.955 0 0 1 1.655-.489 3.139 3.139 0 0 1 1.914.624c.244.181.43.367.557.557.135.18.203.335.203.461l-.488.177v-.991a.79.79 0 0 1 .23-.584.77.77 0 0 1 .584-.244Zm-2.742 6.04c.398 0 .747-.1 1.045-.3.299-.198.53-.47.693-.814.171-.343.257-.728.257-1.153 0-.434-.086-.823-.257-1.167a1.966 1.966 0 0 0-.693-.814 1.838 1.838 0 0 0-1.045-.3c-.389 0-.733.1-1.031.3-.299.198-.534.47-.706.814a2.691 2.691 0 0 0-.244 1.167c0 .425.081.81.244 1.153.172.344.407.616.706.815.298.199.642.298 1.031.298ZM276.277 85.502a.793.793 0 0 1-.584-.231.837.837 0 0 1-.231-.597v-5.605a.79.79 0 0 1 .231-.584.77.77 0 0 1 .584-.244c.235 0 .43.081.583.244a.79.79 0 0 1 .231.584v1.275l-.095-.909a2.1 2.1 0 0 1 .38-.57c.163-.172.344-.312.543-.42.199-.118.412-.204.638-.259.226-.054.452-.081.678-.081.272 0 .498.077.679.23.19.155.285.336.285.544 0 .298-.077.515-.231.651a.771.771 0 0 1-.502.19c-.172 0-.33-.032-.475-.095a1.167 1.167 0 0 0-.977.027c-.163.073-.317.19-.461.353a2.073 2.073 0 0 0-.34.61 2.592 2.592 0 0 0-.122.842v3.217a.837.837 0 0 1-.231.597.789.789 0 0 1-.583.23ZM282.881 84.674a.837.837 0 0 1-.231.597.791.791 0 0 1-.584.23.79.79 0 0 1-.583-.23.837.837 0 0 1-.231-.597v-5.605a.79.79 0 0 1 .231-.584.768.768 0 0 1 .583-.244c.236 0 .43.081.584.244a.79.79 0 0 1 .231.584v5.605Zm-.828-7.316c-.308 0-.525-.05-.652-.149-.126-.1-.19-.276-.19-.529v-.258c0-.262.068-.439.204-.53.145-.099.362-.148.651-.148.317 0 .539.05.665.149.127.1.19.276.19.53v.257c0 .262-.067.443-.203.543-.136.09-.358.136-.665.136ZM287.975 85.637c-.769 0-1.439-.158-2.009-.475a3.437 3.437 0 0 1-1.303-1.316c-.298-.552-.448-1.176-.448-1.873 0-.814.163-1.507.489-2.076a3.54 3.54 0 0 1 1.303-1.33 3.345 3.345 0 0 1 1.696-.462c.462 0 .896.095 1.303.285.416.19.783.452 1.099.787.317.326.566.706.747 1.14.19.434.285.896.285 1.385a.696.696 0 0 1-.258.529.864.864 0 0 1-.57.203h-5.184l-.408-1.357h4.981l-.298.272v-.367a1.214 1.214 0 0 0-.285-.706 1.67 1.67 0 0 0-.625-.488 1.682 1.682 0 0 0-.787-.19c-.271 0-.525.036-.76.109a1.458 1.458 0 0 0-.611.366 1.795 1.795 0 0 0-.407.692c-.099.29-.149.656-.149 1.1 0 .488.099.904.299 1.248.208.335.47.593.787.773.325.172.669.258 1.031.258.335 0 .602-.027.801-.081a1.85 1.85 0 0 0 .475-.19c.127-.082.24-.15.339-.204.163-.081.317-.122.462-.122.199 0 .362.068.488.204a.65.65 0 0 1 .204.475c0 .244-.127.466-.38.665-.235.199-.566.375-.991.53a4.057 4.057 0 0 1-1.316.216ZM292.139 84.375a.762.762 0 0 1-.122-.489c.009-.198.127-.37.353-.515a.7.7 0 0 1 .461-.109c.163.01.321.09.475.245.263.262.538.465.828.61.29.145.651.217 1.086.217a4.61 4.61 0 0 0 .448-.054.888.888 0 0 0 .42-.217c.127-.118.19-.294.19-.53 0-.198-.067-.357-.203-.474a1.71 1.71 0 0 0-.543-.299 7.925 7.925 0 0 0-.733-.23 23.79 23.79 0 0 1-.869-.272 3.837 3.837 0 0 1-.8-.38 1.907 1.907 0 0 1-.597-.638c-.154-.262-.231-.593-.231-.99 0-.453.127-.838.38-1.154a2.49 2.49 0 0 1 .977-.733 3.246 3.246 0 0 1 1.276-.258c.28 0 .574.036.882.109.308.063.602.171.882.325a2.1 2.1 0 0 1 .706.584.967.967 0 0 1 .176.488c.018.19-.068.362-.258.516a.68.68 0 0 1-.475.15.746.746 0 0 1-.447-.19 1.594 1.594 0 0 0-.625-.476 2.072 2.072 0 0 0-.882-.176c-.136 0-.285.018-.448.054a.792.792 0 0 0-.407.204c-.118.1-.176.262-.176.489 0 .208.067.375.203.502.136.117.317.217.543.298.235.073.484.145.746.217.272.073.548.159.828.258.281.1.539.23.774.394.235.163.425.375.57.638.145.253.217.579.217.977 0 .461-.136.855-.407 1.18a2.636 2.636 0 0 1-1.018.747 3.332 3.332 0 0 1-1.249.244c-.533 0-1.067-.09-1.601-.271a2.815 2.815 0 0 1-1.33-.99Z" fill="#fff"/><path d="M40.66 72.002c.366.211.823.341 1.372.39.535-.003 1.113-.004 1.734-.003l21.772-.22a2.988 2.988 0 0 0 1.479-.486c.45-.32.802-.698 1.053-1.133a3.34 3.34 0 0 0 .455-1.48 2.534 2.534 0 0 0-.32-1.523l-10.81-18.764a7.719 7.719 0 0 0-.851-1.295c-.303-.398-.621-.694-.954-.886-.666-.384-1.476-.405-2.428-.062-.967.29-1.653.787-2.06 1.49-.192.334-.286.727-.28 1.177-.007.398.105.82.336 1.265l11.504 20.102 3.249-4.82-23.75.417c-.536.004-.993.142-1.372.414a2.7 2.7 0 0 0-.858.91c-.464.804-.597 1.688-.398 2.65.185.911.56 1.53 1.126 1.857Z" fill="url(#a)"/><path d="M27.878 72.002c-.366.211-.824.341-1.373.39-.535-.003-1.113-.004-1.733-.003L3 72.169a2.988 2.988 0 0 1-1.48-.486A3.589 3.589 0 0 1 .467 70.55a3.34 3.34 0 0 1-.454-1.48 2.534 2.534 0 0 1 .319-1.523l10.81-18.764c.279-.518.563-.95.851-1.295.303-.398.621-.694.954-.886.666-.384 1.476-.405 2.429-.062.966.29 1.653.787 2.059 1.49.193.334.286.727.28 1.177.007.398-.105.82-.335 1.265L5.876 70.574l-3.25-4.82 23.75.417c.536.004.993.142 1.372.414.36.24.646.543.859.91.464.804.596 1.688.398 2.65-.185.911-.56 1.53-1.127 1.857Z" fill="url(#b)"/><path d="M57.069 48.772c0 .659-.18 1.377-.54 2.155-.418.718-.867 1.496-1.346 2.334l-17.15 29.182c-.479.718-1.077 1.257-1.795 1.616-.779.36-1.557.539-2.335.539-.838 0-1.616-.18-2.334-.54a3.93 3.93 0 0 1-1.796-1.615l-16.79-29.181c-.48-.779-.839-1.497-1.078-2.155-.3-.719-.449-1.377-.449-1.976 0-1.197.599-2.304 1.796-3.322 1.137-1.077 2.334-1.616 3.591-1.616.599 0 1.198.18 1.796.539.539.299 1.018.778 1.437 1.436l18.047 31.157-8.979.628L48.09 46.258c.419-.718.957-1.227 1.616-1.526a4.163 4.163 0 0 1 1.886-.45c1.436 0 2.723.51 3.86 1.527 1.078.958 1.617 1.946 1.617 2.963ZM57.069 35.826c0-.659-.18-1.377-.54-2.155-.418-.719-.867-1.497-1.346-2.335L38.033 2.155c-.479-.718-1.077-1.257-1.795-1.616C35.459.179 34.68 0 33.903 0c-.838 0-1.616.18-2.334.539a3.93 3.93 0 0 0-1.796 1.616l-16.79 29.181c-.48.778-.839 1.497-1.078 2.155-.3.718-.449 1.377-.449 1.975 0 1.198.599 2.305 1.796 3.323 1.137 1.077 2.334 1.616 3.591 1.616.599 0 1.198-.18 1.796-.539.539-.3 1.018-.778 1.437-1.437L38.123 7.273l-8.979-.629L48.09 38.34c.419.718.957 1.227 1.616 1.526.598.3 1.227.449 1.886.449 1.436 0 2.723-.509 3.86-1.526 1.078-.958 1.617-1.946 1.617-2.963Z" fill="#12A60F"/><defs><linearGradient id="a" x1="53.99" y1="46.297" x2="53.99" y2="72.392" gradientUnits="userSpaceOnUse"><stop stop-color="#096907"/><stop offset="1" stop-color="#15C912"/></linearGradient><linearGradient id="b" x1="14.547" y1="46.297" x2="14.547" y2="72.392" gradientUnits="userSpaceOnUse"><stop stop-color="#096907"/><stop offset="1" stop-color="#15C912"/></linearGradient></defs></svg>