<svg width="34" height="34" fill="none" xmlns="http://www.w3.org/2000/svg"><path d="M5.551 30.214.278 29.011 0 30.869l3.206.732c.749.182 1.273.857 1.174 1.517a1.025 1.025 0 0 1-.192.463c.248.163.53.286.837.356 1.172.268 2.246-.347 2.4-1.374.153-1.026-.673-2.075-1.844-2.342l-.03-.007ZM23.06 19.264 2.436 14.557l-1.08 7.227 12.374 2.824c2.961.676 5.048 3.327 4.66 5.921a3.987 3.987 0 0 1-.747 1.804 9.994 9.994 0 0 0 3.256 1.385c4.556 1.04 8.733-1.353 9.329-5.344.596-3.992-2.614-8.07-7.17-9.11ZM13.1.283a9.993 9.993 0 0 1 3.256 1.384 3.987 3.987 0 0 0-.747 1.804c-.386 2.583 1.68 5.223 4.621 5.913l12.413 2.832-1.08 7.227-20.622-4.707c-4.556-1.04-7.766-5.118-7.17-9.11C4.367 1.637 8.544-.756 13.1.284Z" fill="#12A60F"/><path d="M26.938 5.096c-1.563-.359-2.663-1.759-2.458-3.129.053-.359.192-.68.394-.953a5.282 5.282 0 0 0-1.72-.732c-2.409-.55-4.616.715-4.931 2.825-.316 2.11 1.381 4.265 3.79 4.815l.043.01 10.857 2.478.57-3.82-6.545-1.494Z" fill="#12A60F"/><path d="M30.806 2.402c-.755-.178-1.285-.856-1.186-1.52.026-.174.093-.33.192-.463-.248-.163-.53-.287 0 0a2.57 2.57 0 0 0-.838-.357c-1.171-.267-2.245.348-2.398 1.375-.154 1.026.672 2.075 1.843 2.342l.014.003 5.29 1.207L34 3.131l-3.194-.729ZM7.057 28.903c1.565.358 2.668 1.759 2.463 3.13-.053.36-.191.68-.394.953a5.28 5.28 0 0 0 1.72.732c2.409.55 4.616-.715 4.931-2.825.316-2.11-1.381-4.265-3.789-4.815l-.059-.013-10.842-2.474-.57 3.82 6.54 1.492Z" fill="#12A60F"/></svg>